<?xml version="1.0" encoding="UTF-8" standalone="no"?>
<!-- Created with Sodipodi ("http://www.sodipodi.com/") -->

<svg
   xml:space="preserve"
   width="216mm"
   height="216mm"
   style="fill-rule:evenodd;image-rendering:optimizeQuality;shape-rendering:geometricPrecision;text-rendering:geometricPrecision"
   viewBox="0 0 16235.345 11692"
   id="svg2"
   sodipodi:version="0.34"
   inkscape:version="1.2.2 (b0a8486541, 2022-12-01)"
   sodipodi:docname="art.svg"
   version="1.1"
   xmlns:inkscape="http://www.inkscape.org/namespaces/inkscape"
   xmlns:sodipodi="http://sodipodi.sourceforge.net/DTD/sodipodi-0.dtd"
   xmlns="http://www.w3.org/2000/svg"
   xmlns:svg="http://www.w3.org/2000/svg"
   xmlns:rdf="http://www.w3.org/1999/02/22-rdf-syntax-ns#"
   xmlns:cc="http://creativecommons.org/ns#"
   xmlns:dc="http://purl.org/dc/elements/1.1/"><metadata
     id="metadata22"><rdf:RDF><cc:Work
         rdf:about=""><dc:format>image/svg+xml</dc:format><dc:type
           rdf:resource="http://purl.org/dc/dcmitype/StillImage" /></cc:Work></rdf:RDF></metadata><sodipodi:namedview
     inkscape:window-height="524"
     inkscape:window-width="954"
     inkscape:pageshadow="2"
     inkscape:pageopacity="0.0"
     borderopacity="1.0"
     bordercolor="#666666"
     pagecolor="#ffffff"
     id="base"
     inkscape:zoom="0.5025993"
     inkscape:cx="402.90546"
     inkscape:cy="430.76065"
     inkscape:window-x="960"
     inkscape:window-y="20"
     inkscape:current-layer="svg2"
     inkscape:showpageshadow="2"
     inkscape:pagecheckerboard="0"
     inkscape:deskcolor="#d1d1d1"
     inkscape:document-units="mm"
     showgrid="false"
     inkscape:window-maximized="0" /><defs
     id="defs4"><style
       type="text/css"
       id="style6">
   
    .str0 {stroke:#131516;stroke-width:3}
    .str1 {stroke:#131516;stroke-width:42}
    .fil1 {fill:none}
    .fil0 {fill:#131516}
   
  </style></defs><path
     class="fil0 str0"
     d="m 8493.6917,6645.6996 c -232.8583,64.7376 -442.8125,209.4451 -637.4973,430.3144 -194.6848,224.6774 -290.1185,472.2034 -290.1185,738.7698 0,167.5561 57.2602,357.9607 167.9633,559.7896 110.7032,205.6369 278.6665,354.1525 496.2554,449.3548 72.5296,15.2324 106.8858,53.3133 106.8858,106.6266 0,19.0405 -26.7215,38.0809 -91.6164,53.3133 -347.3787,-87.5861 -633.6799,-274.1826 -855.0862,-552.1734 -221.4062,-281.7988 -335.9267,-601.6785 -343.5614,-967.2553 11.4521,-392.2335 129.7899,-757.8103 355.0135,-1092.9224 229.0409,-338.9202 522.9768,-578.83 881.8076,-719.7294 L 8020.3404,4299.9149 c -587.8717,487.4358 -1065.0403,993.912 -1435.3232,1527.0449 -370.2829,529.3248 -561.1503,1104.3467 -576.4197,1725.0657 7.6347,277.9907 64.8949,548.3652 171.7807,807.3155 106.8858,262.7583 267.2144,498.86 480.986,715.9213 431.3604,430.3144 992.5107,654.9918 1675.8162,677.8404 232.8583,-15.2324 480.986,-57.1214 748.2004,-125.6671 z m 274.8491,-38.0809 595.5065,2928.4227 c 587.8717,-236.1017 881.8077,-750.1941 881.8077,-1534.6611 -34.356,-262.7583 -110.703,-498.86 -240.493,-708.3051 C 9879.3894,7079.8221 9711.426,6912.266 9497.6545,6790.4071 9283.8829,6668.5481 9043.39,6607.6187 8768.5408,6607.6187 Z M 7985.9843,2647.203 c 125.9725,-76.1618 271.0318,-209.4451 427.5431,-396.0416 156.5113,-182.7884 309.2052,-399.8496 454.2645,-643.5675 148.8766,-247.526 267.2144,-498.8601 355.0135,-754.00226 87.799,-251.33407 129.7898,-491.24387 129.7898,-712.1132 0,-95.202305 -7.6347,-190.404605 -26.7214,-274.18263 -15.2694,-137.09131 -57.2603,-243.71789 -129.7899,-316.07163 -72.5296,-68.54566 -164.146,-106.62658 -278.6665,-106.62658 -229.0409,0 -435.1777,140.8994 -618.4105,422.69821 -141.2419,243.71789 -259.5797,533.13288 -343.5614,860.62879 -87.799,331.304 -137.4246,658.7999 -145.0593,990.1039 19.0868,377.0012 80.1644,685.4566 175.5981,929.1745 z m -240.493,220.8693 C 7573.7106,2251.1614 7478.2769,1622.8262 7459.1901,983.06677 c 3.8174,-411.27394 45.8082,-795.89123 125.9725,-1153.85188 76.347,-357.96065 187.0501,-666.4161 332.1094,-932.98249 141.2419,-266.5665 305.3879,-468.3953 488.6207,-605.4867 164.146,-121.8589 282.4838,-186.5965 347.3787,-186.5965 49.6256,0 91.6164,19.0405 129.7899,53.3133 38.1735,34.2729 87.799,91.3942 148.8766,167.5561 454.2645,643.5675 683.3055,1420.41827 683.3055,2326.74416 0,430.31444 -57.2603,849.20454 -171.7807,1268.09464 -110.7031,415.082 -274.8492,811.1236 -492.438,1180.5085 -221.4063,373.1931 -480.986,696.8809 -782.5566,974.8716 l 309.2053,1500.3882 c 167.9633,-19.0404 282.4838,-34.2728 347.3787,-34.2728 290.1186,0 549.6983,60.9295 790.1913,182.7884 240.493,121.859 446.6296,285.6069 614.5936,495.052 167.963,205.637 297.753,441.7387 389.369,708.3051 87.799,266.5664 137.425,544.5572 137.425,833.9721 0,449.3549 -118.338,860.6288 -355.014,1230.0138 -236.675,369.3849 -591.6888,639.7594 -1068.8574,814.9317 30.5387,186.5965 83.9816,456.971 164.146,803.507 76.3469,350.345 133.6072,628.335 171.7807,833.972 38.1735,205.637 53.4428,403.658 53.4428,597.871 0,300.839 -72.5296,567.405 -217.5888,803.507 -148.8767,236.102 -347.3788,418.89 -599.3238,548.365 -248.1277,129.475 -522.9768,194.213 -820.7301,194.213 -419.9084,0 -786.3739,-118.051 -1099.3965,-350.344 -313.0226,-236.102 -480.986,-552.174 -496.2554,-955.832 11.4521,-178.98 53.4429,-346.536 129.7899,-506.476 76.347,-159.94 179.4154,-289.415 313.0226,-388.425 129.7899,-102.819 286.3012,-156.132 465.7166,-167.556 148.8766,0 290.1185,41.889 423.7257,121.859 129.7899,83.778 236.6757,194.212 316.84,335.112 76.347,140.899 118.3378,297.031 118.3378,464.587 0,224.677 -76.3469,415.082 -229.0409,571.214 -152.694,156.132 -347.3788,236.102 -580.2371,236.102 h -87.799 c 148.8766,228.485 393.187,346.536 732.931,346.536 171.7807,0 347.3788,-38.081 522.9768,-106.627 179.4154,-72.353 328.2921,-167.556 454.2646,-289.415 125.9725,-121.859 209.9542,-251.334 244.3103,-388.425 64.8949,-156.132 95.4337,-373.193 95.4337,-643.568 0,-182.788 -19.0867,-365.576 -53.4429,-548.365 -34.3561,-178.98 -87.799,-418.89 -160.3286,-715.921 -72.5296,-293.223 -125.9725,-521.709 -156.5113,-677.8402 -229.041,57.1214 -465.7166,87.5862 -713.8443,87.5862 -416.091,0 -809.278,-83.7781 -1179.5608,-255.1422 -370.2829,-171.3642 -694.7575,-407.4659 -977.2414,-712.1132 -278.6664,-304.6474 -496.2553,-647.3757 -652.7666,-1035.8011 -152.694,-384.6173 -232.8583,-788.275 -236.6757,-1207.1651 15.2694,-388.4254 87.799,-761.6184 225.2236,-1111.9629 137.4246,-354.1526 313.0226,-689.2647 530.6115,-1001.5282 217.5889,-312.2635 442.8125,-597.8704 675.6708,-853.0126 236.6756,-251.3341 545.8809,-575.0219 935.2505,-967.2554 z"
     id="path9"
     style="fill:#08b200;fill-opacity:1;stroke:#08b200;stroke-width:526.14545461;stroke-dasharray:none;stroke-opacity:1" /></svg>
